<?xml version="1.0" encoding="utf-8"?>
<svg xmlns="http://www.w3.org/2000/svg" viewBox="524.4355 211.625 73.7584 67.9" width="73.7584px" height="67.9px"><g id="Capa_1"><path class="st0" d="M 536.394 214.025 C 539.394 214.025 542.394 214.025 545.394 214.025 C 546.994 214.025 547.594 215.025 546.894 216.425 C 545.594 219.025 544.194 221.625 542.894 224.225 C 542.694 224.525 542.594 225.025 542.694 225.325 C 543.694 231.325 544.794 237.225 545.894 243.225 C 546.694 247.825 547.494 252.325 548.294 256.925 C 548.594 258.525 548.194 259.925 547.194 261.125 C 544.894 263.925 542.694 266.725 540.294 269.525 C 538.094 272.125 534.594 272.125 532.494 269.525 C 530.194 266.725 527.894 263.925 525.594 261.125 C 524.594 259.825 524.294 258.425 524.494 256.825 C 525.994 248.625 527.394 240.325 528.894 232.125 C 529.294 229.825 529.694 227.625 530.094 225.325 C 530.194 225.025 530.094 224.625 529.994 224.425 C 528.694 221.825 527.294 219.125 525.894 216.525 C 525.194 215.125 525.794 214.125 527.394 214.125 C 530.294 214.025 533.394 214.025 536.394 214.025 Z M 539.794 226.025 C 537.494 226.025 535.294 226.025 533.194 226.025 C 532.794 226.025 532.794 226.325 532.794 226.525 C 530.994 236.725 529.194 247.025 527.294 257.225 C 527.194 258.025 527.294 258.625 527.794 259.325 C 529.994 262.025 532.294 264.725 534.494 267.525 C 535.594 268.825 536.994 268.825 538.094 267.525 C 539.994 265.225 541.894 262.925 543.694 260.625 C 545.694 258.225 545.494 258.825 544.994 255.625 C 543.694 248.325 542.394 241.025 541.094 233.725 C 540.694 231.125 540.294 228.625 539.794 226.025 Z M 543.394 216.925 C 538.694 216.925 534.094 216.925 529.394 216.925 C 530.394 218.925 531.494 220.925 532.494 222.925 C 532.594 223.025 532.794 223.125 532.994 223.125 C 535.294 223.125 537.594 223.125 539.894 223.125 C 540.094 223.125 540.294 223.025 540.394 222.925 C 541.294 220.925 542.294 218.925 543.394 216.925 Z" style="stroke-width: 1; fill: rgb(200, 138, 233);"/><path class="st0" d="M 598.194 268.925 C 598.194 269.125 598.194 269.425 598.194 269.625 C 598.194 272.325 598.194 275.125 598.194 277.825 C 598.194 278.625 597.994 279.125 597.294 279.525 C 585.994 279.525 574.694 279.525 563.394 279.525 C 562.594 279.125 562.294 278.525 562.294 277.625 C 562.294 274.525 562.294 271.325 562.294 268.225 C 562.194 261.325 563.794 254.925 566.794 248.725 C 568.194 245.925 569.794 243.125 571.294 240.425 C 571.494 240.125 571.494 239.725 571.494 239.425 C 571.094 236.625 570.694 233.825 570.194 231.125 C 570.094 230.825 569.994 230.425 569.894 230.125 C 568.794 228.125 567.794 226.025 566.694 224.125 C 566.094 223.125 566.194 222.325 566.794 221.425 C 567.094 221.025 567.294 220.625 567.694 220.325 C 568.294 219.925 568.294 219.425 568.294 218.825 C 568.294 217.025 568.294 215.225 568.294 213.425 C 568.294 212.125 568.794 211.625 570.094 211.625 C 571.594 211.625 573.094 211.625 574.494 211.625 C 575.794 211.625 576.194 212.025 576.194 213.325 C 576.194 215.125 576.194 216.925 576.194 218.725 C 576.194 218.925 576.294 219.225 576.394 219.325 C 577.694 220.325 578.994 221.325 580.294 222.325 C 581.494 221.425 582.694 220.425 583.994 219.425 C 584.094 219.325 584.194 219.025 584.194 218.825 C 584.194 217.025 584.194 215.225 584.194 213.425 C 584.194 212.125 584.694 211.625 585.994 211.625 C 587.494 211.625 589.094 211.625 590.594 211.625 C 591.694 211.625 592.094 212.125 592.094 213.125 C 592.094 215.125 592.094 217.225 592.094 219.225 C 592.094 219.725 592.194 220.025 592.594 220.325 C 593.094 220.725 593.494 221.225 593.794 221.725 C 594.294 222.425 594.394 223.225 593.894 224.125 C 592.894 226.025 591.894 227.925 590.894 229.825 C 590.294 230.925 590.194 232.125 589.994 233.225 C 589.594 235.325 589.294 237.425 588.994 239.625 C 588.994 239.825 588.994 240.125 588.994 240.225 C 589.694 241.525 590.394 242.725 591.194 244.025 C 593.994 249.025 598.194 256.625 598.194 268.925 Z M 589.094 245.425 C 588.594 244.525 588.094 243.725 587.694 242.925 C 587.294 242.025 586.794 241.325 585.694 241.625 C 585.694 241.625 585.694 241.625 585.594 241.625 C 584.894 241.525 584.394 240.925 584.494 240.325 C 584.494 239.725 584.994 239.125 585.594 239.025 C 585.894 239.025 586.194 239.025 586.494 238.925 C 586.494 238.825 586.594 238.725 586.594 238.625 C 586.894 236.525 587.194 234.425 587.594 232.425 C 587.794 231.225 587.894 230.025 588.494 228.825 C 589.494 227.025 590.394 225.225 591.394 223.425 C 591.594 223.025 591.594 222.825 591.294 222.525 C 589.994 221.225 586.994 220.725 585.494 221.825 C 584.194 222.825 582.994 223.925 581.794 225.125 C 580.694 226.225 580.094 226.225 579.094 225.125 C 578.394 224.325 577.694 223.525 576.894 222.825 C 575.794 221.825 574.594 221.025 572.994 221.225 C 571.894 221.325 570.794 221.525 569.894 222.125 C 569.194 222.625 569.194 222.725 569.594 223.425 C 570.594 225.325 571.594 227.225 572.594 229.125 C 572.794 229.425 572.894 229.725 572.994 230.125 C 573.294 231.625 573.494 233.125 573.694 234.625 C 573.894 236.025 574.194 237.525 574.394 238.925 C 574.794 238.925 575.094 238.925 575.494 238.925 C 576.194 239.025 576.794 239.525 576.794 240.225 C 576.794 240.925 576.294 241.425 575.594 241.525 C 575.194 241.525 574.794 241.525 574.494 241.525 C 574.294 241.525 573.994 241.725 573.894 241.825 C 572.294 244.825 570.594 247.725 569.194 250.825 C 566.794 256.025 565.394 261.525 565.394 267.325 C 565.394 270.325 565.394 273.325 565.394 276.325 C 565.394 276.425 565.394 276.625 565.394 276.725 C 566.294 276.725 567.094 276.725 567.994 276.725 C 567.994 274.525 567.994 272.425 567.994 270.325 C 567.994 269.425 568.594 268.825 569.394 268.825 C 570.094 268.825 570.694 269.425 570.694 270.325 C 570.694 271.625 570.694 272.825 570.694 274.125 C 570.694 275.025 570.694 275.925 570.694 276.725 C 571.594 276.725 572.494 276.725 573.394 276.725 C 573.394 275.825 573.394 274.925 573.394 274.125 C 573.394 273.425 573.994 272.825 574.694 272.825 C 575.394 272.825 575.994 273.325 576.094 274.025 C 576.094 274.325 576.094 274.625 576.094 274.925 C 576.094 275.525 576.094 276.225 576.094 276.825 C 580.894 276.825 585.494 276.825 590.194 276.825 C 590.294 276.825 590.494 276.825 590.694 276.825 C 590.694 275.925 590.694 275.125 590.694 274.225 C 590.694 273.625 590.994 273.125 591.594 272.925 C 592.094 272.725 592.594 272.925 592.994 273.325 C 593.194 273.625 593.294 274.025 593.294 274.425 C 593.394 275.225 593.294 276.025 593.294 276.825 C 594.194 276.825 595.094 276.825 595.894 276.825 C 595.894 274.125 595.894 271.425 595.894 268.725 C 595.494 258.425 591.894 249.225 589.094 245.425 Z M 586.894 218.425 C 587.794 218.525 588.594 218.625 589.494 218.725 C 589.494 217.225 589.494 215.725 589.494 214.325 C 588.594 214.325 587.794 214.325 586.894 214.325 C 586.894 215.625 586.894 217.025 586.894 218.425 Z M 570.994 214.225 C 570.994 215.725 570.994 217.225 570.994 218.625 C 571.894 218.525 572.694 218.425 573.594 218.325 C 573.594 216.925 573.594 215.525 573.594 214.125 C 572.694 214.225 571.894 214.225 570.994 214.225 Z" style="stroke-width: 1; fill: rgb(200, 138, 233);"/><path class="st0" d="M 581.994 244.225 C 581.994 245.025 581.294 245.725 580.494 245.725 C 579.694 245.725 578.994 245.025 578.994 244.225 C 578.994 243.425 579.694 242.725 580.494 242.725 C 581.294 242.725 581.994 243.525 581.994 244.225 Z" style="stroke-width: 1; fill: rgb(200, 138, 233);"/></g></svg>